#!OML:ASF H:\LiuWeirdWalks\Patient Classification 1\Patient 1\Session 1\male.ASF
:FULLY-SPECIFIED
:DEGREES
766
root 0.513914 17.9198 3.54094 3.07533 -10.2777 -9.61283
lowerback 2.38566 -1.87165 6.44684
upperback -0.149861 -2.25289 5.0149
thorax -1.54059 -1.16423 1.64766
lowerneck -12.3716 0.861292 6.50416
upperneck 20.8242 1.23855 -6.71663
head 8.59416 0.389212 -3.23451
rclavicle 3.78188e-014 8.34896e-015
rhumerus -43.4574 -9.52785 -73.1908
rradius 28.9553
rwrist -6.61263
rhand -16.4992 -3.787
rfingers 7.12502
rthumb 9.71858 -33.5428
lclavicle 3.78188e-014 8.34896e-015
lhumerus -28.7001 7.48512 80.2711
lradius 29.1385
lwrist 4.29493
lhand -13.0095 -2.79932
lfingers 7.12502
lthumb 13.0841 26.7703
rfemur 11.0297 4.42087 33.8503
rtibia 9.8829
rfoot -9.77568 -12.9214
rtoes -6.69
lfemur -32.263 2.47419 -1.38997
ltibia 21.9972
lfoot -7.715 24.2674
ltoes -14.6872
767
root 0.532222 17.9114 3.6087 3.15508 -10.4487 -9.68489
lowerback 2.35473 -1.87274 6.53064
upperback -0.143428 -2.25572 5.04209
thorax -1.51878 -1.16589 1.62838
lowerneck -12.364 0.887668 6.53611
upperneck 20.7561 1.27518 -6.75743
head 8.57277 0.404787 -3.24843
rclavicle 6.65929e-015 3.26007e-014
rhumerus -43.4819 -9.53374 -73.1359
rradius 28.9214
rwrist -6.64781
rhand -16.5187 -3.81475
rfingers 7.12502
rthumb 9.69972 -33.5714
lclavicle 6.65929e-015 3.26007e-014
lhumerus -28.8566 7.88071 80.1578
lradius 28.6098
lwrist 3.85439
lhand -13.0375 -2.89178
lfingers 7.12502
lthumb 13.0571 26.6795
rfemur 11.1658 4.44035 33.7785
rtibia 9.96097
rfoot -9.8633 -12.77
rtoes -7.01354
lfemur -32.1059 2.43759 -1.36866
ltibia 21.962
lfoot -7.72733 24.2685
ltoes -14.7765
768
root 0.550892 17.9036 3.67801 3.22916 -10.6151 -9.70404
lowerback 2.32247 -1.87228 6.55644
upperback -0.145619 -2.25775 5.05654
thorax -1.50337 -1.16693 1.62803
lowerneck -12.3559 0.903185 6.54218
upperneck 20.6871 1.29713 -6.77511
head 8.5497 0.413781 -3.2516
rclavicle 2.82523e-014 1.63003e-014
rhumerus -43.5214 -9.53575 -73.0729
rradius 28.889
rwrist -6.67432
rhand -16.5241 -3.82782
rfingers 7.12502
rthumb 9.69453 -33.5847
lclavicle 2.82523e-014 1.63003e-014
lhumerus -29.03 8.28472 80.0417
lradius 28.101
lwrist 3.44324
lhand -13.0404 -2.89108
lfingers 7.12502
lthumb 13.0543 26.6804
rfemur 11.2778 4.45493 33.6462
rtibia 10.0932
rfoot -9.98236 -12.6207
rtoes -7.336
lfemur -31.9209 2.35935 -1.39986
ltibia 21.9075
lfoot -7.73419 24.271
ltoes -14.8673
769
root 0.569826 17.896 3.74862 3.30507 -10.7853 -9.69027
lowerback 2.28745 -1.86572 6.54285
upperback -0.151486 -2.25282 5.0638
thorax -1.48881 -1.16428 1.64166
lowerneck -12.3472 0.908777 6.52653
upperneck 20.6365 1.30744 -6.77859
head 8.53169 0.417045 -3.24788
rclavicle -7.45443e-017 -1.86858e-014
rhumerus -43.5638 -9.55836 -72.9928
rradius 28.8494
rwrist -6.67163
rhand -16.5153 -3.82701
rfingers 7.12502
rthumb 9.70298 -33.5835
lclavicle -7.45443e-017 -1.86858e-014
lhumerus -29.2157 8.71617 79.9185
lradius 27.6096
lwrist 2.99074
lhand -13.0267 -2.87685
lfingers 7.12502
lthumb 13.0674 26.6938
rfemur 11.3587 4.51752 33.4856
rtibia 10.2858
rfoot -10.1211 -12.5204
rtoes -7.64473
lfemur -31.7104 2.25405 -1.46271
ltibia 21.8304
lfoot -7.76082 24.284
ltoes -14.9351
770
root 0.589079 17.8886 3.82075 3.37788 -10.9594 -9.65491
lowerback 2.24913 -1.85366 6.50563
upperback -0.152359 -2.242 5.0618
thorax -1.46656 -1.15833 1.65823
lowerneck -12.3426 0.910884 6.5176
upperneck 20.5946 1.31128 -6.781
head 8.51692 0.417843 -3.24585
rclavicle 1.04362e-015 1.03368e-014
rhumerus -43.5972 -9.60636 -72.9076
rradius 28.7978
rwrist -6.64549
rhand -16.5047 -3.80157
rfingers 7.12502
rthumb 9.71325 -33.5576
lclavicle 1.04362e-015 1.03368e-014
lhumerus -29.4026 9.13451 79.7919
lradius 27.1428
lwrist 2.55995
lhand -13.0067 -2.81079
lfingers 7.12502
lthumb 13.0868 26.7586
rfemur 11.4217 4.60246 33.3064
rtibia 10.5237
rfoot -10.2689 -12.4474
rtoes -7.96222
lfemur -31.471 2.12717 -1.54861
ltibia 21.7375
lfoot -7.80373 24.3054
ltoes -14.983
771
root 0.608894 17.8811 3.89478 3.44528 -11.1367 -9.59747
lowerback 2.19554 -1.84439 6.44765
upperback -0.143034 -2.23792 5.04887
thorax -1.42493 -1.15514 1.67438
lowerneck -12.3552 0.918954 6.52509
upperneck 20.5717 1.3199 -6.78504
head 8.51224 0.421758 -3.24716
rclavicle -2.57923e-014 -3.22031e-014
rhumerus -43.6188 -9.65566 -72.8395
rradius 28.7489
rwrist -6.60767
rhand -16.5007 -3.76333
rfingers 7.12502
rthumb 9.71712 -33.5192
lclavicle -2.57923e-014 -3.22031e-014
lhumerus -29.5926 9.55531 79.6461
lradius 26.6946
lwrist 2.15106
lhand -12.9612 -2.73923
lfingers 7.12502
lthumb 13.1306 26.8274
rfemur 11.4776 4.70269 33.1059
rtibia 10.7911
rfoot -10.4182 -12.3988
rtoes -8.29281
lfemur -31.2043 1.99997 -1.66992
ltibia 21.6404
lfoot -7.87434 24.3262
ltoes -14.9793
772
root 0.629249 17.8734 3.97082 3.51255 -11.3205 -9.54854
lowerback 2.13491 -1.83185 6.40053
upperback -0.130294 -2.23012 5.03385
thorax -1.37626 -1.15002 1.68188
lowerneck -12.367 0.931286 6.539
upperneck 20.5393 1.33288 -6.78928
head 8.5046 0.428233 -3.24895
rclavicle 9.96408e-015 -2.62396e-014
rhumerus -43.6454 -9.71089 -72.7767
rradius 28.7105
rwrist -6.56447
rhand -16.4962 -3.72081
rfingers 7.12502
rthumb 9.72148 -33.4764
lclavicle 9.96408e-015 -2.62396e-014
lhumerus -29.7925 9.96222 79.493
lradius 26.2575
lwrist 1.76179
lhand -12.942 -2.73726
lfingers 7.12502
lthumb 13.1491 26.8281
rfemur 11.5364 4.81637 32.9172
rtibia 11.0637
rfoot -10.5505 -12.3716
rtoes -8.64765
lfemur -30.9163 1.87353 -1.79113
ltibia 21.5534
lfoot -7.96751 24.3561
ltoes -14.9398
773
root 0.650239 17.8653 4.04855 3.58073 -11.5084 -9.51582
lowerback 2.07975 -1.82541 6.36299
upperback -0.117236 -2.22957 5.02362
thorax -1.33066 -1.14865 1.68957
lowerneck -12.3554 0.959164 6.59792
upperneck 20.4723 1.36614 -6.83117
head 8.48291 0.444321 -3.2682
rclavicle -5.26531e-014 3.85642e-014
rhumerus -43.6716 -9.73392 -72.7351
rradius 28.6823
rwrist -6.52998
rhand -16.4974 -3.67827
rfingers 7.12502
rthumb 9.72029 -33.434
lclavicle -5.26531e-014 3.85642e-014
lhumerus -30.0013 10.3735 79.3236
lradius 25.8204
lwrist 1.388
lhand -12.9241 -2.78316
lfingers 7.12502
lthumb 13.1663 26.7811
rfemur 11.6003 4.93718 32.747
rtibia 11.3365
rfoot -10.6665 -12.3595
rtoes -9.01627
lfemur -30.6114 1.75849 -1.90932
ltibia 21.4852
lfoot -8.05921 24.3981
ltoes -14.8651
774
root 0.672022 17.8568 4.12851 3.64377 -11.6883 -9.49812
lowerback 2.01833 -1.81487 6.35402
upperback -0.110593 -2.22291 5.01365
thorax -1.28917 -1.14456 1.68149
lowerneck -12.3282 0.98383 6.64115
upperneck 20.4129 1.39798 -6.86617
head 8.46074 0.459457 -3.28268
rclavicle -2.5842e-014 -4.69132e-014
rhumerus -43.7484 -9.71203 -72.7088
rradius 28.7071
rwrist -6.54571
rhand -16.5025 -3.66871
rfingers 7.12502
rthumb 9.71533 -33.4246
lclavicle -2.5842e-014 -4.69132e-014
lhumerus -30.2319 10.763 79.1573
lradius 25.3888
lwrist 1.02395
lhand -12.9042 -2.85637
lfingers 7.12502
lthumb 13.1856 26.7067
rfemur 11.6785 5.05094 32.5925
rtibia 11.6064
rfoot -10.7616 -12.3609
rtoes -9.42002
lfemur -30.2856 1.65027 -2.03126
ltibia 21.438
lfoot -8.14812 24.437
ltoes -14.7965
775
root 0.694557 17.848 4.21009 3.71331 -11.8616 -9.49675
lowerback 1.95833 -1.80034 6.36778
upperback -0.110086 -2.2097 5.00529
thorax -1.25552 -1.13754 1.66253
lowerneck -12.304 1.00024 6.66631
upperneck 20.3597 1.4191 -6.88662
head 8.44023 0.469572 -3.29042
rclavicle -1.14301e-015 1.78906e-014
rhumerus -43.8393 -9.70182 -72.6709
rradius 28.7293
rwrist -6.53201
rhand -16.4984 -3.63663
rfingers 7.12502
rthumb 9.71932 -33.3924
lclavicle -1.14301e-015 1.78906e-014
lhumerus -30.4733 11.1428 78.9863
lradius 24.9645
lwrist 0.608337
lhand -12.9047 -3.0055
lfingers 7.12502
lthumb 13.1851 26.5576
rfemur 11.7583 5.15627 32.4512
rtibia 11.8748
rfoot -10.8593 -12.3637
rtoes -9.8033
lfemur -29.9495 1.56224 -2.1593
ltibia 21.4085
lfoot -8.22796 24.466
ltoes -14.7209
776
root 0.71793 17.839 4.29399 3.77381 -12.0159 -9.47673
lowerback 1.89465 -1.7874 6.37366
upperback -0.111867 -2.19898 4.99181
thorax -1.22211 -1.13172 1.64267
lowerneck -12.2629 1.01041 6.67501
upperneck 20.2911 1.43409 -6.9006
head 8.41086 0.476451 -3.2934
rclavicle -1.57785e-014 -2.14687e-014
rhumerus -43.9406 -9.69208 -72.6209
rradius 28.7492
rwrist -6.51173
rhand -16.5011 -3.60136
rfingers 7.12502
rthumb 9.71672 -33.3572
lclavicle -1.57785e-014 -2.14687e-014
lhumerus -30.7377 11.5183 78.8189
lradius 24.5785
lwrist 0.167461
lhand -12.8899 -3.12094
lfingers 7.12502
lthumb 13.1993 26.4412
rfemur 11.858 5.24143 32.2864
rtibia 12.1266
rfoot -10.9452 -12.3678
rtoes -10.1976
lfemur -29.5967 1.48298 -2.33486
ltibia 21.3978
lfoot -8.30506 24.4609
ltoes -14.6717
777
root 0.741676 17.8302 4.38006 3.83099 -12.1543 -9.43691
lowerback 1.82291 -1.77345 6.36417
upperback -0.118302 -2.18771 4.97218
thorax -1.18862 -1.12556 1.62475
lowerneck -12.2378 1.00793 6.65308
upperneck 20.2474 1.43211 -6.88742
head 8.39117 0.475437 -3.28435
rclavicle -1.34925e-014 -1.98785e-015
rhumerus -44.0519 -9.69462 -72.5564
rradius 28.762
rwrist -6.47588
rhand -16.4922 -3.56458
rfingers 7.12502
rthumb 9.72534 -33.32
lclavicle -1.34925e-014 -1.98785e-015
lhumerus -31.0298 11.8843 78.651
lradius 24.2348
lwrist -0.282252
lhand -12.8582 -3.23075
lfingers 7.12502
lthumb 13.2299 26.3294
rfemur 11.9748 5.32025 32.1012
rtibia 12.3547
rfoot -11.0126 -12.3796
rtoes -10.5965
lfemur -29.2378 1.40568 -2.55114
ltibia 21.3997
lfoot -8.33968 24.4377
ltoes -14.6537
778
root 0.765904 17.822 4.46776 3.88851 -12.2817 -9.40634
lowerback 1.75871 -1.76245 6.35972
upperback -0.126113 -2.17934 4.95619
thorax -1.16089 -1.121 1.60825
lowerneck -12.2295 1.00943 6.64656
upperneck 20.219 1.43459 -6.88639
head 8.38024 0.476253 -3.28199
rclavicle -3.35449e-014 2.98177e-014
rhumerus -44.1568 -9.68706 -72.4973
rradius 28.7704
rwrist -6.4618
rhand -16.4731 -3.53135
rfingers 7.12502
rthumb 9.7437 -33.286
lclavicle -3.35449e-014 2.98177e-014
lhumerus -31.3399 12.2325 78.4875
lradius 23.9409
lwrist -0.69906
lhand -12.8312 -3.30654
lfingers 7.12502
lthumb 13.2559 26.2519
rfemur 12.1225 5.40484 31.9296
rtibia 12.5279
rfoot -11.0337 -12.4057
rtoes -11.0106
lfemur -28.8909 1.32698 -2.76571
ltibia 21.4173
lfoot -8.29986 24.4061
ltoes -14.7012
779
root 0.790409 17.8157 4.55675 3.94802 -12.392 -9.35225
lowerback 1.69244 -1.75558 6.32841
upperback -0.139453 -2.17677 4.93401
thorax -1.13706 -1.11931 1.60044
lowerneck -12.2206 1.0178 6.66693
upperneck 20.196 1.44471 -6.90184
head 8.37186 0.481107 -3.28912
rclavicle 3.09856e-014 -1.03368e-014
rhumerus -44.2606 -9.68025 -72.4396
rradius 28.7733
rwrist -6.46373
rhand -16.4601 -3.52536
rfingers 7.12502
rthumb 9.75628 -33.2794
lclavicle 3.09856e-014 -1.03368e-014
lhumerus -31.6558 12.5442 78.3307
lradius 23.6792
lwrist -1.04072
lhand -12.7995 -3.36856
lfingers 7.12502
lthumb 13.2865 26.1879
rfemur 12.3012 5.49782 31.7392
rtibia 12.6262
rfoot -10.9941 -12.4477
rtoes -11.4328
lfemur -28.5893 1.20726 -2.99383
ltibia 21.4511
lfoot -8.14743 24.4252
ltoes -14.7925
